<svg viewBox="0 0 1707 1707" fill="none" xmlns="http://www.w3.org/2000/svg">
    <rect width="1706.67" height="1706.67" fill="#E0F2D5"/>
    <path d="M599.839 336.422C569.655 340.734 548.226 348.836 523.269 365.43C505.629 377.19 486.159 397.052 475.445 414.3C466.167 429.326 457.935 447.881 454.015 462.516C446.175 491.654 446.306 527.849 454.146 557.118C456.629 566.526 464.338 585.473 468.781 593.052L472.047 598.801L460.418 613.958C407.367 683.604 368.559 769.582 354.839 847.46C346.477 895.153 345.562 948.204 352.357 985.966C361.503 1035.88 381.626 1081.09 412.855 1121.21C424.485 1136.1 450.226 1161.84 464.599 1172.82C471.133 1177.78 476.621 1182.23 477.013 1182.62C478.581 1184.45 502.231 1199.74 513.599 1206.4C539.863 1221.69 558.549 1230.57 588.21 1241.94L600.754 1246.78L604.935 1257.49C622.575 1302.83 666.479 1349.35 705.81 1364.38C714.565 1367.77 729.983 1368.95 740.306 1366.99C759.775 1363.33 780.159 1348.96 794.01 1328.97C799.629 1320.86 810.343 1298.52 812.826 1289.77L814.525 1283.89L849.413 1283.62L884.301 1283.36L885.869 1288.72C891.879 1308.84 909.519 1336.81 924.023 1349.22C939.442 1362.42 961.786 1372.09 977.205 1372.09C997.066 1372.09 1025.94 1355.1 1047.76 1330.4C1068.8 1306.75 1089.19 1270.95 1095.07 1247.3L1096.76 1240.77L1113.23 1234.36C1132.04 1227.05 1173.73 1206.14 1191.11 1195.29C1242.72 1163.41 1281.27 1126.82 1309.1 1083.31C1334.71 1043.2 1350.52 997.204 1354.96 950.033C1355.75 941.801 1357.05 933.308 1357.97 931.348C1359.01 928.734 1359.01 926.382 1357.97 922.854C1357.18 920.241 1356.27 909.134 1355.88 898.42C1354.83 872.156 1353.13 857.521 1347.25 827.206C1331.83 748.022 1293.16 663.612 1241.8 596.58C1241.15 595.796 1238.15 592.137 1235.01 588.348L1229.26 581.422L1233.96 570.577C1236.58 564.566 1240.37 554.505 1242.33 548.102C1245.72 536.996 1245.99 535.297 1245.86 509.686C1245.86 484.337 1245.72 482.246 1242.33 471.14C1235.79 449.841 1223.25 426.713 1211.1 413.646C1208.35 410.772 1206.13 408.028 1206.13 407.636C1206.13 407.244 1201.56 403.062 1196.07 398.358C1145.9 356.153 1081.08 344.654 1013.4 366.084C1005.56 368.566 980.733 381.502 969.626 388.82C956.69 397.444 935.261 419.004 926.898 431.94C915.007 450.233 921.279 448.142 876.853 448.404C855.685 448.404 832.687 449.057 825.893 449.58C819.098 450.233 807.207 451.148 799.629 451.54L785.778 452.454L783.426 446.052C776.109 426.321 759.775 401.233 743.834 385.553C719.791 361.902 688.823 345.308 655.373 338.382C639.562 335.116 615.389 334.201 599.839 336.422Z" fill="#8CC96E"/>
    <path d="M594.667 325.867C563.867 330.267 542 338.533 516.533 355.467C498.533 367.467 478.667 387.733 467.733 405.333C458.267 420.667 449.867 439.6 445.867 454.533C437.867 484.267 438 521.2 446 551.067C448.533 560.667 456.4 580 460.933 587.733L464.267 593.6L452.4 609.067C398.267 680.133 358.667 767.867 344.667 847.333C336.133 896 335.2 950.133 342.133 988.667C351.467 1039.6 372 1085.73 403.867 1126.67C415.733 1141.87 442 1168.13 456.667 1179.33C463.333 1184.4 468.933 1188.93 469.333 1189.33C470.933 1191.2 495.067 1206.8 506.667 1213.6C533.467 1229.2 552.533 1238.27 582.8 1249.87L595.6 1254.8L599.867 1265.73C617.867 1312 662.667 1359.47 702.8 1374.8C711.733 1378.27 727.467 1379.47 738 1377.47C757.867 1373.73 778.667 1359.07 792.8 1338.67C798.533 1330.4 809.467 1307.6 812 1298.67L813.733 1292.67L849.333 1292.4L884.933 1292.13L886.533 1297.6C892.667 1318.13 910.667 1346.67 925.467 1359.33C941.2 1372.8 964 1382.67 979.733 1382.67C1000 1382.67 1029.47 1365.33 1051.73 1340.13C1073.2 1316 1094 1279.47 1100 1255.33L1101.73 1248.67L1118.53 1242.13C1137.73 1234.67 1180.27 1213.33 1198 1202.27C1250.67 1169.73 1290 1132.4 1318.4 1088C1344.53 1047.07 1361.67 1000.13 1366.2 952C1366.72 946.5 1367 943 1367.27 935.933C1367.38 933.002 1367.27 928 1367.27 924.267C1367.27 921.5 1366.53 910.267 1366.13 899.333C1365.07 872.533 1363.33 857.6 1357.33 826.667C1341.6 745.867 1302.13 659.733 1249.73 591.333C1249.07 590.533 1246 586.8 1242.8 582.933L1236.93 575.867L1241.73 564.8C1244.4 558.667 1248.27 548.4 1250.27 541.867C1253.73 530.533 1254 528.8 1253.87 502.667C1253.87 476.8 1253.73 474.667 1250.27 463.333C1243.6 441.6 1230.8 418 1218.4 404.667C1215.6 401.733 1213.33 398.933 1213.33 398.533C1213.33 398.133 1208.67 393.867 1203.07 389.067C1151.87 346 1085.73 334.267 1016.67 356.133C1008.67 358.667 983.333 371.867 972 379.333C958.8 388.133 936.933 410.133 928.4 423.333C916.267 442 922.667 439.867 877.333 440.133C855.733 440.133 832.267 440.8 825.333 441.333C818.4 442 806.267 442.933 798.533 443.333L784.4 444.267L782 437.733C774.533 417.6 757.867 392 741.6 376C717.067 351.867 685.467 334.933 651.333 327.867C635.2 324.533 610.533 323.6 594.667 325.867ZM644 351.467C665.467 355.733 682.267 362.667 701.067 375.2C716.133 385.333 733.467 402.133 742.267 415.333C749.2 426 758.8 444.8 761.333 452.667C766.533 469.333 767.6 469.6 802.667 467.2C817.733 466.133 851.867 464.933 878.667 464.533C912.533 463.867 928.533 463.2 931.333 462C934.267 460.8 936.667 458 939.733 452.267C958.8 416.4 994 388.267 1034.53 376.533C1056.8 370 1081.47 368 1102.27 370.8C1138 375.6 1170.53 391.333 1193.73 415.333C1204.53 426.4 1208.53 431.733 1216.53 446C1225.87 462.667 1229.6 476.933 1230.27 499.333C1230.8 516.267 1230.53 519.2 1227.47 531.333C1225.47 538.8 1221.07 550.533 1217.33 558.133C1213.6 565.6 1210.67 573.467 1210.67 575.733C1210.67 580.533 1212.8 586.8 1215.07 588.667C1216.8 590.133 1229.73 606.267 1233.73 612C1235.07 613.867 1237.87 617.733 1240 620.667C1242.27 623.6 1247.33 631.067 1251.47 637.333C1255.6 643.6 1260.13 650.4 1261.6 652.4C1263.07 654.533 1267.73 662.267 1272 669.867C1315.6 746.667 1339.33 826.533 1342.27 906.667C1344 954.4 1334.93 1000.67 1316.27 1040.27C1308.8 1056 1295.07 1079.2 1288 1088C1285.33 1091.33 1282 1096 1280.53 1098.27C1272.13 1112.13 1230.67 1150.53 1206 1167.33C1176 1188 1138.8 1207.6 1103.47 1221.47C1079.73 1230.8 1081.07 1229.47 1076.67 1247.33C1067.33 1285.07 1028.53 1336.4 997.333 1352.27C989.867 1356.13 987.467 1356.67 978.667 1356.67C970.4 1356.53 967.2 1355.87 960 1352.53C937.333 1341.87 920.667 1319.87 908.533 1284.8C902.267 1266.67 901.467 1266.13 880.267 1267.47C872.4 1267.87 851.2 1268.4 833.067 1268.4L800.267 1268.67L796.8 1271.87C794.667 1273.87 792.267 1278.8 790.533 1284.53C781.333 1315.47 763.6 1340.13 743.333 1350.13C733.467 1354.93 718.667 1355.33 709.333 1351.2C695.333 1344.8 679.733 1333.2 664.533 1317.73C642.533 1295.2 627.2 1271.6 620 1249.07C618.4 1244 616.133 1238.8 614.933 1237.47C613.6 1236 602.533 1230.8 590.133 1226C543.067 1207.73 507.6 1187.87 474.8 1161.47C407.867 1107.73 372 1043.07 363.067 960.267C356.933 902.267 369.2 825.467 394.933 760.667C414.533 711.467 445.733 657.333 476.8 618.667C487.2 605.733 490.667 599.6 490.667 594.533C490.667 592.933 486.533 583.2 481.333 572.8C468.667 547.2 464 528.267 464 503.333C464 492 466.267 472.133 468.4 465.333C472.933 450.533 474.933 445.467 480.4 434.267C487.467 420.267 498.933 404 508 395.333C511.067 392.4 515.6 388.133 517.867 385.867C523.333 380.267 542.933 367.6 552.8 363.2C583.6 349.467 614.133 345.467 644 351.467Z" fill="black"/>
    <path d="M637.6 420C627.6 422.133 613.867 430.4 605.6 439.2C594.8 450.8 590.267 460.533 588 476.267C581.733 519.733 626.933 549.2 663.6 525.467C674.267 518.533 682 509.467 688.533 496L693.5 482L695.5 467C695.5 456 693.867 451.067 689.6 442.4C684.8 432.667 677.6 425.6 668.533 421.867C662.4 419.333 645.733 418.267 637.6 420Z" fill="black"/>
    <path d="M1033.33 424.533C1018.93 427.6 1009.07 435.6 1002.93 449.333C998.4 459.6 998.133 476.8 1002.53 489.6C1008.67 507.733 1022.27 523.333 1038.67 531.2C1046.67 535.067 1053.67 536.333 1061.33 536.333C1069 536.333 1076.13 534.933 1081.33 532.133C1094.67 525.067 1103.2 514.933 1107.2 501.467C1114.93 475.2 1099.73 443.333 1073.07 430.267C1063.73 425.733 1051.47 422.533 1044.13 422.8C1042.27 422.8 1037.33 423.6 1033.33 424.533Z" fill="black"/>
    <path d="M835.2 526.667C833.6 527.2 831.067 529.467 829.6 531.6C822.4 541.067 812.267 546.533 794.8 550C777.733 553.467 767.2 551.333 756.133 542.133C748.4 535.6 740.933 535.467 734.133 541.467C725.467 548.933 726.533 560.133 736.4 568.8C744.267 575.6 758.533 582.133 769.733 584.133C789.333 587.467 818 581.067 837.333 569.2L843.867 565.2L853.6 569.867C891.467 587.867 930.533 585.6 953.333 564C963.067 554.933 963.733 545.2 955.067 537.067C952.533 534.667 950.267 534 944.8 534C938.667 534 937.2 534.667 932.133 538.933C924.267 545.6 916.533 548 902.8 548C884.533 548 869.2 542.667 855.467 531.733C847.333 525.067 842.133 523.867 835.2 526.667Z" fill="black"/>
    <path d="M844 775.5L820 715L1024 820.5L1034.5 843.5L990.5 865L959 852L844 775.5Z" fill="#D9D9D9"/>
    <path d="M810.933 692.667C801.067 700.933 800.933 725.867 810.8 747.6C828.267 786.8 877.6 826.8 957.867 866.933C985.2 880.667 983.6 880.4 1006.4 873.067L1018.8 869.2L1031.73 875.6C1038.8 879.2 1050.67 886.133 1058 890.933C1069.6 898.667 1078 902.933 1101.6 912.933C1104.27 914 1110 918 1114.27 921.6C1118.53 925.2 1123.87 929.2 1126 930.4C1131.73 933.467 1143.6 933.2 1149.07 930C1157.2 925.067 1165.6 902.8 1163.47 891.6C1162.93 888.667 1160.53 884.4 1157.87 881.333C1153.47 876.533 1150 874.8 1133.07 868.667C1129.6 867.467 1125.2 865.333 1123.33 863.733L1119.87 861.067L1125.07 855.467C1137.73 841.733 1151.47 816.4 1162 787.333C1167.6 771.6 1168.13 769.6 1166.8 765.067C1164.53 757.733 1158.53 753.333 1150.93 753.333C1141.33 753.333 1138.27 756.667 1131.47 774.667C1120 804.933 1110.67 822.267 1098.8 835.067C1090.4 844.133 1083.6 848 1076.13 848C1067.87 848 1061.73 844.4 1058.53 837.6C1056 832.4 1055.73 830.267 1056.4 817.6C1057.2 800.267 1060.8 786.133 1069.73 764.667C1078 744.533 1078.93 738.133 1074 732.267C1067.07 724 1055.87 723.867 1048.93 732C1043.6 738.4 1032.93 764.933 1027.87 785.2C1025.73 793.6 1023.73 800.667 1023.47 801.067C1022.93 801.467 1005.07 791.6 880.933 721.467C819.2 686.667 818.4 686.4 810.933 692.667ZM868.933 745.467C888.533 756.667 914.533 771.2 926.667 778C982.533 809.333 1012.93 826.667 1015.2 828.4C1017.73 830.133 1017.73 830.4 1014.13 836.533C1011.07 841.867 1008.93 843.6 1001.73 846.933C990.4 852.267 987.333 851.733 962.8 839.467C895.2 805.6 851.333 770.533 835.867 738C832.4 730.8 830.933 725.333 832.533 725.333C832.933 725.333 849.2 734.4 868.933 745.467Z" fill="black"/>
    <path d="M625.067 719.467C620.533 721.867 617.333 727.733 617.333 733.6C617.333 739.2 617.2 739.067 632.4 754.667C661.733 784.8 676.4 812.533 670.8 826.933C670.133 828.8 667.2 832.133 664.533 834.267C650.4 844.933 625.067 833.867 594 803.2C588.8 798.133 581.867 790.933 578.667 787.2C575.333 783.467 571.067 779.467 569.067 778.133C561.467 773.2 550 776.4 546.133 784.533C541.6 794.133 543.6 798.4 561.2 817.333C604.4 863.867 643.6 880.933 674.4 866.667C684.533 862 696.667 850.267 701.333 840.667C704.267 834.933 704.667 832.133 704.667 820C704.667 807.867 704.133 804.533 700.933 795.733C694 777.067 679.6 756.133 658.267 733.867C651.6 726.8 644.533 720.267 642.533 719.2C637.733 716.8 629.733 716.933 625.067 719.467Z" fill="black"/>
    <ellipse cx="619" cy="598" rx="56" ry="32" fill="#F7C4CC"/>
    <ellipse cx="1071" cy="591" rx="56" ry="32" fill="#F7C4CC"/>
</svg>
