<svg viewBox="0 0 1031 1059" fill="none" xmlns="http://www.w3.org/2000/svg">
    <path d="M262.839 12.4223C232.655 16.7343 211.226 24.8356 186.269 41.4302C168.629 53.1902 149.159 73.0516 138.445 90.2996C129.167 105.326 120.935 123.881 117.015 138.516C109.175 167.654 109.306 203.849 117.146 233.118C119.629 242.526 127.338 261.473 131.781 269.052L135.047 274.801L123.418 289.958C70.3673 359.604 31.5593 445.582 17.8393 523.46C9.4766 571.153 8.56193 624.204 15.3566 661.966C24.5033 711.881 44.6259 757.092 75.8553 797.206C87.4846 812.102 113.226 837.844 127.599 848.82C134.133 853.785 139.621 858.228 140.013 858.62C141.581 860.449 165.231 875.737 176.599 882.401C202.863 897.689 221.549 906.574 251.21 917.942L263.754 922.777L267.935 933.492C285.575 978.833 329.479 1025.35 368.81 1040.38C377.565 1043.77 392.983 1044.95 403.306 1042.99C422.775 1039.33 443.159 1024.96 457.01 1004.97C462.629 996.865 473.343 974.521 475.826 965.766L477.525 959.886L512.413 959.625L547.301 959.364L548.869 964.721C554.879 984.844 572.519 1012.81 587.023 1025.22C602.442 1038.42 624.786 1048.09 640.205 1048.09C660.066 1048.09 688.943 1031.1 710.765 1006.4C731.802 982.753 752.186 946.95 758.066 923.3L759.765 916.766L776.229 910.364C795.045 903.046 836.727 882.14 854.106 871.294C905.719 839.412 944.266 802.825 972.098 759.313C997.709 719.198 1013.52 673.204 1017.96 626.033C1018.75 617.801 1020.05 609.308 1020.97 607.348C1022.01 604.734 1022.01 602.382 1020.97 598.854C1020.18 596.241 1019.27 585.134 1018.88 574.42C1017.83 548.156 1016.13 533.521 1010.25 503.206C994.834 424.022 956.157 339.612 904.805 272.58C904.151 271.796 901.146 268.137 898.01 264.348L892.261 257.422L896.965 246.577C899.578 240.566 903.367 230.505 905.327 224.102C908.725 212.996 908.986 211.297 908.855 185.686C908.855 160.337 908.725 158.246 905.327 147.14C898.794 125.841 886.25 102.713 874.098 89.6463C871.354 86.7716 869.133 84.0276 869.133 83.6356C869.133 83.2436 864.559 79.0623 859.071 74.3583C808.895 32.1529 744.085 20.6542 676.399 42.0835C668.559 44.5662 643.733 57.5023 632.626 64.8196C619.69 73.4436 598.261 95.0036 589.898 107.94C578.007 126.233 584.279 124.142 539.853 124.404C518.685 124.404 495.687 125.057 488.893 125.58C482.098 126.233 470.207 127.148 462.629 127.54L448.778 128.454L446.426 122.052C439.109 102.321 422.775 77.2329 406.834 61.5529C382.791 37.9022 351.823 21.3076 318.373 14.3823C302.562 11.1156 278.389 10.2009 262.839 12.4223Z" fill="#8CC96E"/>
    <path d="M257.667 1.8667C226.867 6.2667 205 14.5333 179.533 31.4667C161.533 43.4667 141.667 63.7334 130.733 81.3334C121.267 96.6667 112.867 115.6 108.867 130.533C100.867 160.267 101 197.2 109 227.067C111.533 236.667 119.4 256 123.933 263.733L127.267 269.6L115.4 285.067C61.2667 356.133 21.6667 443.867 7.66666 523.333C-0.866678 572 -1.80001 626.133 5.13332 664.667C14.4667 715.6 35 761.733 66.8667 802.667C78.7333 817.867 105 844.133 119.667 855.333C126.333 860.4 131.933 864.933 132.333 865.333C133.933 867.2 158.067 882.8 169.667 889.6C196.467 905.2 215.533 914.267 245.8 925.867L258.6 930.8L262.867 941.733C280.867 988 325.667 1035.47 365.8 1050.8C374.733 1054.27 390.467 1055.47 401 1053.47C420.867 1049.73 441.667 1035.07 455.8 1014.67C461.533 1006.4 472.467 983.6 475 974.667L476.733 968.667L512.333 968.4L547.933 968.133L549.533 973.6C555.667 994.133 573.667 1022.67 588.467 1035.33C604.2 1048.8 627 1058.67 642.733 1058.67C663 1058.67 692.467 1041.33 714.733 1016.13C736.2 992 757 955.467 763 931.333L764.733 924.667L781.533 918.133C800.733 910.667 843.267 889.333 861 878.267C913.667 845.733 953 808.4 981.4 764C1007.53 723.067 1024.67 676.133 1029.2 628C1029.72 622.5 1030 619 1030.27 611.933C1030.38 609.002 1030.27 604 1030.27 600.267C1030.27 597.5 1029.53 586.267 1029.13 575.333C1028.07 548.533 1026.33 533.6 1020.33 502.667C1004.6 421.867 965.133 335.733 912.733 267.333C912.067 266.533 909 262.8 905.8 258.933L899.933 251.867L904.733 240.8C907.4 234.667 911.267 224.4 913.267 217.867C916.733 206.533 917 204.8 916.867 178.667C916.867 152.8 916.733 150.667 913.267 139.333C906.6 117.6 893.8 94 881.4 80.6667C878.6 77.7334 876.333 74.9334 876.333 74.5334C876.333 74.1334 871.667 69.8667 866.067 65.0667C814.867 22 748.733 10.2666 679.667 32.1333C671.667 34.6666 646.333 47.8667 635 55.3334C621.8 64.1334 599.933 86.1334 591.4 99.3334C579.267 118 585.667 115.867 540.333 116.133C518.733 116.133 495.267 116.8 488.333 117.333C481.4 118 469.267 118.933 461.533 119.333L447.4 120.267L445 113.733C437.533 93.6 420.867 68 404.6 52C380.067 27.8667 348.467 10.9334 314.333 3.8667C298.2 0.533366 273.533 -0.399968 257.667 1.8667ZM307 27.4667C328.467 31.7333 345.267 38.6667 364.067 51.2C379.133 61.3333 396.467 78.1334 405.267 91.3334C412.2 102 421.8 120.8 424.333 128.667C429.533 145.333 430.6 145.6 465.667 143.2C480.733 142.133 514.867 140.933 541.667 140.533C575.533 139.867 591.533 139.2 594.333 138C597.267 136.8 599.667 134 602.733 128.267C621.8 92.4001 657 64.2667 697.533 52.5334C719.8 46.0001 744.467 44 765.267 46.8C801 51.6 833.533 67.3334 856.733 91.3334C867.533 102.4 871.533 107.733 879.533 122C888.867 138.667 892.6 152.933 893.267 175.333C893.8 192.267 893.533 195.2 890.467 207.333C888.467 214.8 884.067 226.533 880.333 234.133C876.6 241.6 873.667 249.467 873.667 251.733C873.667 256.533 875.8 262.8 878.067 264.667C879.8 266.133 892.733 282.267 896.733 288C898.067 289.867 900.867 293.733 903 296.667C905.267 299.6 910.333 307.067 914.467 313.333C918.6 319.6 923.133 326.4 924.6 328.4C926.067 330.533 930.733 338.267 935 345.867C978.6 422.667 1002.33 502.533 1005.27 582.667C1007 630.4 997.933 676.667 979.267 716.267C971.8 732 958.067 755.2 951 764C948.333 767.333 945 772 943.533 774.267C935.133 788.133 893.667 826.533 869 843.333C839 864 801.8 883.6 766.467 897.467C742.733 906.8 744.067 905.467 739.667 923.333C730.333 961.067 691.533 1012.4 660.333 1028.27C652.867 1032.13 650.467 1032.67 641.667 1032.67C633.4 1032.53 630.2 1031.87 623 1028.53C600.333 1017.87 583.667 995.867 571.533 960.8C565.267 942.667 564.467 942.133 543.267 943.467C535.4 943.867 514.2 944.4 496.067 944.4L463.267 944.667L459.8 947.867C457.667 949.867 455.267 954.8 453.533 960.533C444.333 991.467 426.6 1016.13 406.333 1026.13C396.467 1030.93 381.667 1031.33 372.333 1027.2C358.333 1020.8 342.733 1009.2 327.533 993.733C305.533 971.2 290.2 947.6 283 925.067C281.4 920 279.133 914.8 277.933 913.467C276.6 912 265.533 906.8 253.133 902C206.067 883.733 170.6 863.867 137.8 837.467C70.8667 783.733 35 719.067 26.0667 636.267C19.9333 578.267 32.2 501.467 57.9333 436.667C77.5333 387.467 108.733 333.333 139.8 294.667C150.2 281.733 153.667 275.6 153.667 270.533C153.667 268.933 149.533 259.2 144.333 248.8C131.667 223.2 127 204.267 127 179.333C127 168 129.267 148.133 131.4 141.333C135.933 126.533 137.933 121.467 143.4 110.267C150.467 96.2667 161.933 80 171 71.3334C174.067 68.4 178.6 64.1334 180.867 61.8667C186.333 56.2667 205.933 43.6 215.8 39.2C246.6 25.4667 277.133 21.4667 307 27.4667Z" fill="black"/>
    <path d="M300.6 96C290.6 98.1333 276.867 106.4 268.6 115.2C257.8 126.8 253.267 136.533 251 152.267C244.733 195.733 289.933 225.2 326.6 201.467C337.267 194.533 345 185.467 351.533 172L356.5 158L358.5 143C358.5 132 356.867 127.067 352.6 118.4C347.8 108.667 340.6 101.6 331.533 97.8667C325.4 95.3333 308.733 94.2667 300.6 96Z" fill="black"/>
    <path d="M696.333 100.533C681.933 103.6 672.067 111.6 665.933 125.333C661.4 135.6 661.133 152.8 665.533 165.6C671.667 183.733 685.267 199.333 701.667 207.2C709.667 211.067 716.667 212.333 724.333 212.333C732 212.333 739.133 210.933 744.333 208.133C757.667 201.067 766.2 190.933 770.2 177.467C777.933 151.2 762.733 119.333 736.067 106.267C726.733 101.733 714.467 98.5334 707.133 98.8001C705.267 98.8001 700.333 99.6001 696.333 100.533Z" fill="black"/>
    <path d="M498.2 202.667C496.6 203.2 494.067 205.467 492.6 207.6C485.4 217.067 475.267 222.533 457.8 226C440.733 229.467 430.2 227.333 419.133 218.133C411.4 211.6 403.933 211.467 397.133 217.467C388.467 224.933 389.533 236.133 399.4 244.8C407.267 251.6 421.533 258.133 432.733 260.133C452.333 263.467 481 257.067 500.333 245.2L506.867 241.2L516.6 245.867C554.467 263.867 593.533 261.6 616.333 240C626.067 230.933 626.733 221.2 618.067 213.067C615.533 210.667 613.267 210 607.8 210C601.667 210 600.2 210.667 595.133 214.933C587.267 221.6 579.533 224 565.8 224C547.533 224 532.2 218.667 518.467 207.733C510.333 201.067 505.133 199.867 498.2 202.667Z" fill="black"/>
    <path d="M507 451.5L483 391L687 496.5L697.5 519.5L653.5 541L622 528L507 451.5Z" fill="#D9D9D9"/>
    <path d="M473.933 368.667C464.067 376.933 463.933 401.867 473.8 423.6C491.267 462.8 540.6 502.8 620.867 542.933C648.2 556.667 646.6 556.4 669.4 549.067L681.8 545.2L694.733 551.6C701.8 555.2 713.667 562.133 721 566.933C732.6 574.667 741 578.933 764.6 588.933C767.267 590 773 594 777.267 597.6C781.533 601.2 786.867 605.2 789 606.4C794.733 609.467 806.6 609.2 812.067 606C820.2 601.067 828.6 578.8 826.467 567.6C825.933 564.667 823.533 560.4 820.867 557.333C816.467 552.533 813 550.8 796.067 544.667C792.6 543.467 788.2 541.333 786.333 539.733L782.867 537.067L788.067 531.467C800.733 517.733 814.467 492.4 825 463.333C830.6 447.6 831.133 445.6 829.8 441.067C827.533 433.733 821.533 429.333 813.933 429.333C804.333 429.333 801.267 432.667 794.467 450.667C783 480.933 773.667 498.267 761.8 511.067C753.4 520.133 746.6 524 739.133 524C730.867 524 724.733 520.4 721.533 513.6C719 508.4 718.733 506.267 719.4 493.6C720.2 476.267 723.8 462.133 732.733 440.667C741 420.533 741.933 414.133 737 408.267C730.067 400 718.867 399.867 711.933 408C706.6 414.4 695.933 440.933 690.867 461.2C688.733 469.6 686.733 476.667 686.467 477.067C685.933 477.467 668.067 467.6 543.933 397.467C482.2 362.667 481.4 362.4 473.933 368.667ZM531.933 421.467C551.533 432.667 577.533 447.2 589.667 454C645.533 485.333 675.933 502.667 678.2 504.4C680.733 506.133 680.733 506.4 677.133 512.533C674.067 517.867 671.933 519.6 664.733 522.933C653.4 528.267 650.333 527.733 625.8 515.467C558.2 481.6 514.333 446.533 498.867 414C495.4 406.8 493.933 401.333 495.533 401.333C495.933 401.333 512.2 410.4 531.933 421.467Z" fill="black"/>
    <path d="M288.067 395.467C283.533 397.867 280.333 403.733 280.333 409.6C280.333 415.2 280.2 415.067 295.4 430.667C324.733 460.8 339.4 488.533 333.8 502.933C333.133 504.8 330.2 508.133 327.533 510.267C313.4 520.933 288.067 509.867 257 479.2C251.8 474.133 244.867 466.933 241.667 463.2C238.333 459.467 234.067 455.467 232.067 454.133C224.467 449.2 213 452.4 209.133 460.533C204.6 470.133 206.6 474.4 224.2 493.333C267.4 539.867 306.6 556.933 337.4 542.667C347.533 538 359.667 526.267 364.333 516.667C367.267 510.933 367.667 508.133 367.667 496C367.667 483.867 367.133 480.533 363.933 471.733C357 453.067 342.6 432.133 321.267 409.867C314.6 402.8 307.533 396.267 305.533 395.2C300.733 392.8 292.733 392.933 288.067 395.467Z" fill="black"/>
    <ellipse cx="282" cy="274" rx="56" ry="32" fill="#F7C4CC"/>
    <ellipse cx="734" cy="267" rx="56" ry="32" fill="#F7C4CC"/>
</svg>
